PathFileType	4	(X/Y/Z)	C:/Users/opensim2020/Desktop/walking_exp_matlab/subject06_walking18_straight_01.trc																																																																																																																																											
DataRate	CameraRate	NumFrames	NumMarkers	Units	OrigDataRate	OrigDataStartFrame	OrigNumFrames																																																																																																																																							
100	100	5	47	mm	100	1067	396																																																																																																																																							
Frame#	Time	LFHD			RFHD			LBHD			RBHD			C7			T10			CLAV			STRN			RBAK			LSHO			LUPA			LELB			LFRM			LWRA			LWRB			LFIN			RSHO			RUPA			RELB			RFRM			RWRA			RWRB			RFIN			LASI			RASI			LPSI			RPSI			LTHI			LKNE			LTIB			LANK			LHEE			LTOE			RTHI			RKNE			RTIB			RANK			RHEE			RTOE			*39			*40			*41			*42			*43			*44			*45			*46		
		X1	Y1	Z1	X2	Y2	Z2	X3	Y3	Z3	X4	Y4	Z4	X5	Y5	Z5	X6	Y6	Z6	X7	Y7	Z7	X8	Y8	Z8	X9	Y9	Z9	X10	Y10	Z10	X11	Y11	Z11	X12	Y12	Z12	X13	Y13	Z13	X14	Y14	Z14	X15	Y15	Z15	X16	Y16	Z16	X17	Y17	Z17	X18	Y18	Z18	X19	Y19	Z19	X20	Y20	Z20	X21	Y21	Z21	X22	Y22	Z22	X23	Y23	Z23	X24	Y24	Z24	X25	Y25	Z25	X26	Y26	Z26	X27	Y27	Z27	X28	Y28	Z28	X29	Y29	Z29	X30	Y30	Z30	X31	Y31	Z31	X32	Y32	Z32	X33	Y33	Z33	X34	Y34	Z34	X35	Y35	Z35	X36	Y36	Z36	X37	Y37	Z37	X38	Y38	Z38	X39	Y39	Z39	X40	Y40	Z40	X41	Y41	Z41	X42	Y42	Z42	X43	Y43	Z43	X44	Y44	Z44	X45	Y45	Z45	X46	Y46	Z46	X47	Y47	Z47
																																																																																																																																														
50	0.49	-575.17108	1664.71204	1342.97083	-566.86328	1657.12183	1474.2168	-705.28461	1603.61279	1351.72253	-695.57202	1601.10986	1480.96863	-698.23053	1453.01245	1410.63672	-737.86603	1124.51001	1426.30957	-588.24768	1375.32056	1409.08093	-551.79919	1199.04016	1408.05493	-770.27979	1286.91626	1499.05212	-648.14508	1404.06262	1248.01306	-681.46875	1204.45325	1180.60339	-706.1142	1093.94141	1175.20813	-704.02228	941.57764	1166.52307	-671.29095	823.96735	1225.76709	-724.53345	824.61151	1177.45044	-697.56104	738.50232	1191.04077	-625.37842	1412.98975	1570.1189	-653.94904	1214.90344	1661.8158	-641.66687	1093.31458	1672.60181	-628.67871	973.80078	1690.97363	-579.36475	830.29938	1659.00928	-628.7467	836.06012	1703.46216	-596.08484	757.61792	1704.29248	-548.29694	968.71118	1324.40356	-563.62946	968.23096	1543.80542	-709.29492	991.21216	1342.87903	-714.71674	992.11975	1511.2594	-585.73535	655.31982	1262.17493	-574.43024	492.37317	1287.98401	-577.43811	236.46408	1303.66821	-552.69019	68.34562	1352.53809	-586.85266	54.18561	1400.51965	-402.64523	42.16968	1349.3053	-649.41205	630.77698	1589.61182	-658.10046	503.319	1572.96631	-823.10352	289.26605	1558.88892	-928.00586	135.50496	1509.44312	-971.8797	134.33072	1463.72217	-809.61139	34.46281	1501.82971	-673.79138	1699.44617	1407.05872	NaN	NaN	NaN	NaN	NaN	NaN	NaN	NaN	NaN	NaN	NaN	NaN	NaN	NaN	NaN	NaN	NaN	NaN	NaN	NaN	NaN
51	0.5	-569.52454	1665.24084	1341.31323	-561.46289	1657.83044	1472.57141	-699.68829	1604.10901	1349.88293	-690.17157	1601.76965	1479.12341	-692.4762	1453.35596	1408.84485	-731.79883	1125.12134	1424.80969	-582.39142	1376.01196	1407.74512	-545.56885	1199.88831	1406.99292	-764.5741	1287.54602	1497.37073	-641.81274	1404.74194	1246.67358	-673.72333	1205.05908	1178.53015	-697.80426	1094.43665	1172.76294	-694.86896	942.20441	1164.02026	-662.41132	824.64545	1224.13013	-714.66254	824.94562	1174.72595	-687.85132	738.95819	1189.01343	-620.11554	1413.94641	1568.55225	-649.14307	1215.98657	1660.24622	-636.95142	1094.32849	1671.15405	-624.27222	974.84454	1689.72668	-575.19849	831.15479	1658.0365	-624.71588	837.08167	1702.34436	-592.29211	758.51385	1703.30042	-541.69897	969.42639	1323.46484	-556.96246	969.34521	1543.09875	-702.60052	991.79218	1341.79431	-708.41455	992.71429	1510.02039	-580.85004	655.68286	1261.24976	-571.30396	492.54099	1286.85767	-575.57086	236.46371	1302.25171	-552.45166	68.1787	1352.09875	-587.3396	54.45811	1400.0741	-402.65103	42.12214	1349.34607	-641.63275	631.3786	1590.53699	-648.73059	503.80341	1575.30823	-816.39026	292.3631	1559.62976	-923.40051	140.18236	1509.50208	-966.45599	140.51747	1463.35535	-809.26447	34.51325	1501.80481	-668.25342	1700.04492	1405.11902	NaN	NaN	NaN	NaN	NaN	NaN	NaN	NaN	NaN	NaN	NaN	NaN	NaN	NaN	NaN	NaN	NaN	NaN	NaN	NaN	NaN
52	0.51	-563.9187	1665.63977	1339.61499	-556.03784	1658.38062	1470.9082	-694.03857	1604.58667	1348.01892	-684.78503	1602.41614	1477.28479	-686.93445	1453.67993	1407.151	-725.72614	1125.55505	1423.29749	-576.60004	1376.58948	1406.37927	-539.40155	1200.62024	1405.84094	-758.91925	1288.12842	1495.71899	-635.44446	1405.34692	1245.18701	-666.02484	1205.63708	1176.3551	-689.40332	1094.86938	1170.29944	-685.58612	942.73291	1161.46704	-653.19409	825.3894	1222.31396	-704.96057	825.3598	1171.95557	-677.93317	739.39026	1186.94324	-614.87354	1414.80872	1566.96289	-644.01727	1217.02954	1658.92688	-632.20508	1095.31116	1669.76917	-619.84747	975.80682	1688.48926	-571.09332	831.91864	1657.07056	-620.7312	838.11401	1701.25354	-588.42834	759.30103	1702.30017	-535.23834	969.91321	1322.55347	-550.9212	970.23322	1542.13293	-696.32391	992.37012	1340.70325	-702.23242	993.19464	1508.70569	-576.25153	656.08093	1260.27087	-568.01367	492.56699	1285.77405	-573.64325	236.54761	1301.05872	-552.23853	68.04819	1351.74158	-587.38403	54.47117	1399.61047	-402.58487	42.09702	1349.4873	-633.70648	631.88666	1591.7981	-639.07892	504.18649	1577.94519	-809.12811	295.45535	1560.52026	-918.2608	145.10274	1509.70032	-960.29199	146.93439	1462.92859	-808.76001	34.58562	1501.84436	-662.70459	1700.60815	1403.21313	NaN	NaN	NaN	NaN	NaN	NaN	NaN	NaN	NaN	NaN	NaN	NaN	NaN	NaN	NaN	NaN	NaN	NaN	NaN	NaN	NaN
53	0.52	-558.30273	1665.95227	1337.92603	-550.64459	1658.84814	1469.2572	-688.3797	1604.99207	1346.11023	-679.47876	1602.95996	1475.42053	-681.29041	1453.94556	1405.39697	-719.65375	1125.88281	1421.71143	-570.95746	1377.05896	1404.95862	-533.28381	1201.22778	1404.76819	-753.16199	1288.53601	1493.95679	-629.20459	1405.81226	1243.80066	-658.49323	1206.07214	1174.29602	-681.2077	1095.19788	1167.79736	-676.12866	942.88959	1159.28064	-645.44617	825.80182	1221.42175	-694.76581	825.52667	1169.20422	-667.60956	739.80548	1184.52405	-609.74445	1415.54932	1565.36499	-639.07343	1217.95337	1657.60339	-627.61664	1096.16345	1668.47791	-615.46753	976.64124	1687.34119	-566.8078	832.64117	1656.2074	-616.59009	838.85461	1700.25171	-584.51001	760.00043	1701.2981	-528.88501	970.21655	1321.6488	-545.59412	970.8363	1540.91113	-689.6319	992.64148	1339.25806	-696.8241	993.65649	1507.46997	-571.45135	656.22437	1259.19666	-564.64746	492.51553	1284.77039	-571.44678	236.54489	1300.36011	-551.97601	67.91692	1351.49573	-587.35388	54.49385	1399.29956	-402.43219	41.98484	1349.72168	-625.71185	632.2713	1593.19128	-629.09088	504.4718	1580.86755	-801.38605	298.63919	1561.6947	-912.49323	150.12054	1509.8728	-953.34387	153.5192	1462.46289	-808.0979	34.59597	1501.91345	-657.17944	1701.0365	1401.31348	NaN	NaN	NaN	NaN	NaN	NaN	NaN	NaN	NaN	NaN	NaN	NaN	NaN	NaN	NaN	NaN	NaN	NaN	NaN	NaN	NaN
54	0.53	-552.68512	1666.17029	1336.25891	-545.27448	1659.18237	1467.60132	-682.87695	1605.26709	1344.2998	-674.19928	1603.37158	1473.5354	-675.8028	1454.0592	1403.67053	-713.66309	1126.10693	1420.03345	-565.27972	1377.45227	1403.63489	-527.33252	1201.58337	1403.59595	-747.49786	1288.77942	1492.1626	-623.0932	1406.15308	1242.39038	-650.92102	1206.36377	1172.24402	-672.87964	1095.33032	1165.29187	-666.40985	943.13403	1157.02051	-635.80048	826.28259	1219.26379	-684.53882	825.65271	1166.40784	-657.10315	739.93762	1182.26636	-604.677	1416.10498	1563.81445	-634.19733	1218.66724	1656.16992	-623.0069	1096.81775	1667.23291	-611.16119	977.32172	1686.22998	-562.53937	833.17706	1655.46497	-612.46588	839.48987	1699.2749	-580.52307	760.51263	1700.48291	-522.5921	970.32251	1320.87292	-540.22888	971.35645	1539.99365	-683.21936	992.79248	1337.79919	-691.25397	993.85883	1505.96362	-566.61353	656.30096	1258.05481	-561.1604	492.36893	1283.69043	-569.90369	236.41811	1299.29944	-551.67987	67.75629	1351.39734	-587.31464	54.55762	1399.10815	-402.29239	41.93516	1349.98547	-617.5368	632.52112	1594.70227	-618.83075	504.66534	1583.85596	-792.96527	301.71783	1562.84973	-906.06366	155.15974	1510.10864	-945.64758	160.19698	1462.12781	-807.20618	34.61305	1502.12195	-651.61359	1701.36389	1399.4104	NaN	NaN	NaN	NaN	NaN	NaN	NaN	NaN	NaN	NaN	NaN	NaN	NaN	NaN	NaN	NaN	NaN	NaN	NaN	NaN	NaN
